<svg xmlns="http://www.w3.org/2000/svg" height="100" width="100" viewBox="0 0 48.6 48.6"><path d="M3.24 47.198h42.15c3.092-.46 1.356-4.35.992-6.375-1.728-6.345-5.828-12.013-11.376-15.26-4.045 4.716-11.053 6.353-16.577 3.618-1.965-.612-3.555-2.84-5.113-3.436C6.595 29.818 2.09 37.46 1.405 45.487c.057.962.918 1.732 1.835 1.71z" fill="#bbb" fill-opacity=".333" stroke="#fff" stroke-width="2.804"/><path d="M14.195 26c4.26 4.85 11.834 5.986 17.225 2.54 5.072-3.045 7.933-9.59 6.636-15.56-1.212-6.188-6.64-11.196-12.735-11.537-5.77-.465-11.595 3.17-13.847 8.728-2.2 5.218-1.162 11.765 2.722 15.83z" fill="#bbb" fill-opacity=".333" stroke="#fff" stroke-width="2.804"/></svg>