<svg xmlns="http://www.w3.org/2000/svg" height="100" width="100" viewBox="0 0 48.6 48.6"><path d="M3.24 47.198h42.15c3.092-.46 1.356-4.35.992-6.375-1.728-6.345-5.828-12.013-11.376-15.26-4.045 4.716-11.053 6.353-16.577 3.618-1.965-.612-3.555-2.84-5.113-3.436C6.595 29.818 2.09 37.46 1.405 45.487c.057.962.918 1.732 1.835 1.71z" fill="#bbb" fill-opacity=".333" stroke="#fff" stroke-width="2.804"/><path d="M14.195 26c4.26 4.85 11.834 5.986 17.225 2.54 5.072-3.045 7.933-9.59 6.636-15.56-1.212-6.188-6.64-11.196-12.735-11.537-5.77-.465-11.595 3.17-13.847 8.728-2.2 5.218-1.162 11.765 2.722 15.83z" fill="#bbb" fill-opacity=".333" stroke="#fff" stroke-width="2.804"/><path style="line-height:125%" d="M15.422 28.176l2.096-6.43c2.933-.368 6.047-.44 8.705-1.875 1.708-.925 2.893-3.317 1.817-5.11-1.16-1.553-3.238-2.06-5.073-2.248-1.734-.125-3.346.766-4.626 1.855L14.044 9.89c2.592-2.45 6.354-3.417 9.84-2.804 3.45.618 7.05 1.752 9.555 4.327 1.843 1.857 2.43 4.724 1.584 7.184-.908 3.467-4.163 5.72-7.49 6.56-1.548.424-3.13.708-4.716.952l-1.246 3.825-6.148-1.76zm5.038 7.513c-.34 1.3-1.365 2.63-2.85 2.513-1.56-.1-3.31-.477-4.406-1.677-.837-1.38-.197-3.133.58-4.393.93-1.455 2.894-1.2 4.295-.72 1.266.34 2.77 1.192 2.666 2.71 0 .534-.127 1.06-.286 1.566z" font-weight="bold" font-size="55.401" font-family="serif" letter-spacing="0" word-spacing="0" fill="#fff"/></svg>